<?xml version="1.0" encoding="UTF-8" standalone="no"?>
<!-- Created with Inkscape (http://www.inkscape.org/) -->

<svg
   width="136.21548mm"
   height="136.41492mm"
   viewBox="0 0 136.21548 136.41492"
   version="1.1"
   id="svg1"
   inkscape:version="1.4.2 (ebf0e940d0, 2025-05-08)"
   sodipodi:docname="logo2026.svg"
   xmlns:inkscape="http://www.inkscape.org/namespaces/inkscape"
   xmlns:sodipodi="http://sodipodi.sourceforge.net/DTD/sodipodi-0.dtd"
   xmlns="http://www.w3.org/2000/svg"
   xmlns:svg="http://www.w3.org/2000/svg">
  <sodipodi:namedview
     id="namedview1"
     pagecolor="#ffffff"
     bordercolor="#000000"
     borderopacity="0.25"
     inkscape:showpageshadow="2"
     inkscape:pageopacity="0.0"
     inkscape:pagecheckerboard="0"
     inkscape:deskcolor="#d1d1d1"
     inkscape:document-units="mm"
     inkscape:zoom="0.71891835"
     inkscape:cx="266.37239"
     inkscape:cy="423.55297"
     inkscape:current-layer="layer1" />
  <defs
     id="defs1" />
  <g
     inkscape:label="Layer 1"
     inkscape:groupmode="layer"
     id="layer1"
     transform="translate(-34.515925,-36.510443)">
    <g
       id="g64"
       transform="matrix(0.9971851,0,0,0.9971851,14.971097,36.510443)">
	<g
   id="_x23_d9005bff_2_">
		<path
   class="st2"
   d="M 25.5,2.4 C 25.8,1.6 25.7,0.7 26.2,0.1 32.6,1 39,2.6 45,5.3 51.3,8 57.2,12 62,16.9 52.5,23.8 44.9,32.8 38.3,42.4 c -3.3,4.9 -6.2,10 -9.1,15.2 -0.6,-1.2 -1.4,-2.2 -1.9,-3.5 -4.2,-8.7 -5.1,-18.5 -4.8,-28 0.2,-7.9 1.3,-15.9 3,-23.7 z"
   id="path41"
   style="fill:#d9186a" />

		<path
   class="st2"
   d="M 113.7,16.9 C 123.3,7.1 136.6,1.7 150,0 c 0.6,3 1.3,6 1.8,9 1.8,11.5 2.5,23.4 0.2,34.9 -1.1,4.9 -2.8,9.7 -5.5,13.9 -0.5,-0.5 -0.7,-1.1 -1,-1.7 -4.2,-7.8 -8.9,-15.3 -14.4,-22.2 -5.1,-6.3 -10.9,-12.2 -17.4,-17 z"
   id="path42"
   style="fill:#d9186a" />

		<path
   class="st2"
   d="m 63.8,105.2 c 0.7,-0.5 1.6,0.5 1.4,1.2 -0.2,0.7 -0.9,1 -1.5,1.5 -4.7,3.7 -9.4,7.2 -14,10.9 -0.3,0.2 -0.6,0.4 -0.8,0.6 -6.6,5.1 -13.3,10.3 -19.9,15.5 -0.4,0.3 -0.9,0.9 -1.5,0.6 -0.6,-0.3 -0.6,-1.1 -0.4,-1.6 0.5,-0.6 1.2,-1 1.8,-1.5 C 35,127.7 41,123 47,118.3 c 0.3,-0.2 0.5,-0.5 0.8,-0.7 5.4,-4.1 10.7,-8.3 16,-12.4 z"
   id="path43"
   style="fill:#d9186a" />

		<path
   class="st2"
   d="m 110.1,107 c -0.8,-0.7 0.1,-2.6 1.2,-1.7 5.4,4.2 10.7,8.4 16.2,12.5 0.3,0.2 0.6,0.5 0.9,0.7 6.4,5 12.9,10 19.3,15 1,0.6 0.3,2.6 -0.8,1.9 -6.8,-5.2 -13.5,-10.5 -20.3,-15.8 -0.3,-0.2 -0.6,-0.5 -0.9,-0.7 C 120.4,115 115.3,111 110.1,107 Z"
   id="path44"
   style="fill:#d9186a" />

		<path
   class="st2"
   d="m 71.4,106.8 c 0.4,-0.3 0.8,-0.9 1.4,-0.6 0.8,0.4 0.8,1.6 0,2 -5.9,4.6 -11.8,9.2 -17.7,13.8 -0.3,0.2 -0.6,0.5 -0.8,0.7 -6,4.6 -12,9.3 -18,13.9 h -0.6 c -0.7,-0.4 -0.9,-1.5 -0.2,-2 5.5,-4.3 11.1,-8.6 16.6,-12.9 0.4,-0.3 0.7,-0.6 1.1,-0.8 6.1,-4.7 12.1,-9.4 18.2,-14.1 z"
   id="path45"
   style="fill:#d9186a" />

		<path
   class="st2"
   d="m 102.1,108.2 c -0.8,-0.5 -0.6,-1.8 0.2,-2 0.6,-0.1 1,0.4 1.4,0.7 6.2,4.7 12.2,9.6 18.4,14.3 0.3,0.2 0.6,0.4 0.9,0.7 5.5,4.3 11,8.5 16.4,12.8 0.7,0.5 0.6,1.6 -0.1,2.1 h -0.6 c -5.9,-4.5 -11.8,-9.2 -17.7,-13.8 -0.3,-0.2 -0.6,-0.5 -0.9,-0.8 -6.1,-4.7 -12,-9.3 -18,-14 z"
   id="path46"
   style="fill:#d9186a" />

	</g>

	<g
   id="_x23_333333ff_2_">
		<path
   d="m 80.9,8.3 c 3.4,-0.7 7,-0.7 10.5,-0.5 8.1,0.8 15.7,4.5 22.3,9.2 6.5,4.8 12.2,10.6 17.3,17 5.5,6.9 10.3,14.4 14.4,22.2 0.3,0.6 0.5,1.2 1,1.7 0.8,1.1 1.2,2.3 1.8,3.5 3.1,6.3 5.7,12.8 8,19.5 V 81 c -1.5,4.3 -3.2,8.6 -5.4,12.5 -5.4,10 -13.2,18.5 -22.5,25 -0.3,-0.2 -0.6,-0.5 -0.9,-0.7 12.9,-8.8 22.9,-22 27.6,-36.9 -0.8,-3 -2,-5.8 -3.1,-8.7 C 145.8,57.3 137.7,43.2 127.2,31 122.4,25.6 117.1,20.5 111.1,16.5 104.9,12.3 97.8,9.3 90.4,8.8 l -0.2,0.1 c -0.8,11.9 -2,23.7 -2.9,35.6 -0.4,0 -0.9,0.1 -1.3,0.1 -3,-11.4 -6,-22.9 -9.1,-34.2 -0.5,0.2 -1,0.3 -1.4,0.5 0.7,3.8 1.3,7.7 2.1,11.5 0.8,3.7 1.3,7.5 2.1,11.2 0.9,4.5 1.6,9 2.5,13.4 -0.4,0.2 -0.8,0.3 -1.2,0.5 C 74.8,37.6 68.6,27.8 62.4,18 c -3.6,2.4 -6.8,5.4 -9.9,8.5 -11.3,11.7 -20,25.9 -26.7,40.7 -1.9,4.2 -3.5,8.6 -5,13 -0.3,0.7 0.1,1.4 0.3,2.1 2.8,7.9 6.9,15.4 12.3,21.9 4.2,5.1 9.1,9.6 14.5,13.4 -0.3,0.2 -0.6,0.4 -0.8,0.7 -12.9,-9 -22.8,-22.4 -27.5,-37.4 v -0.1 c 0.6,-1.5 1,-3 1.6,-4.6 2.4,-6.3 5.1,-12.6 8.3,-18.6 2.8,-5.2 5.7,-10.3 9.1,-15.2 6.5,-9.6 14.2,-18.7 23.7,-25.5 5.4,-4.1 11.8,-7.3 18.6,-8.6 z"
   id="path47" />

		<path
   d="M 48.8,69.1 C 52.3,68 56,67.7 59.6,68 c 4.3,0.3 8.7,2.2 11.3,5.8 2.2,3 3.1,6.9 2.9,10.6 0.1,3 -0.5,6 -1.1,9 -5,1.2 -10.5,1.1 -15.3,-0.9 -3.9,-1.6 -7,-5.1 -8.3,-9.1 C 47.6,78.8 48,73.8 48.8,69.1 m 5.4,2.9 c -0.7,0.1 -1.4,0 -1.9,0.3 -0.5,4.1 -0.5,8.5 1.6,12.2 1.9,3.4 5.7,5.2 9.4,5.6 2,0.3 4.1,0.2 6.1,0 C 69.9,88.1 70,86 70,84 67.6,86.6 62.9,86.5 60.6,83.8 59,82.2 58.3,79.6 59,77.4 c 0.6,-2.1 2.3,-3.8 4.3,-4.6 -0.4,-0.5 -1.4,-0.4 -2,-0.7 -2.4,-0.4 -4.8,-0.4 -7.1,-0.1 z"
   id="path48" />

		<path
   d="m 107.9,70.4 c 2.7,-1.6 5.8,-2.4 8.9,-2.5 3.3,-0.1 6.6,0.1 9.7,1.2 0.8,4.7 1.1,9.6 -0.4,14.2 -1.2,4 -4.3,7.4 -8.1,9.1 -3.9,1.7 -8.3,2 -12.5,1.5 -0.9,-0.2 -2,-0.2 -2.9,-0.6 -1.2,-5.2 -1.9,-10.8 0,-16 0.8,-2.8 2.8,-5.3 5.3,-6.9 m 4,2.2 c 0,0.1 0.1,0.2 0.1,0.2 1.8,0.7 3.3,2 4,3.7 0.6,1.3 0.5,2.7 0.4,4.1 -0.6,2.9 -3.4,5.3 -6.4,5.2 -1.8,0.1 -3.5,-0.6 -4.7,-1.8 -0.1,2 0.3,4 0.5,6 1.7,0.1 3.4,0.4 5,0.1 2.8,-0.1 5.6,-1 7.9,-2.7 2.7,-2 4,-5.3 4.4,-8.6 0.3,-2.3 0.2,-4.6 -0.2,-6.8 -1.5,0 -2.9,-0.4 -4.4,-0.4 -2.2,0 -4.4,0.5 -6.6,1 z"
   id="path49" />

		<path
   d="m 76.2,102.4 c 4.6,-1.4 9.4,-1.8 14.1,-1.6 3.4,0.2 6.7,0.6 10,1.6 0.1,0.3 -0.2,0.5 -0.3,0.7 -2.9,3.5 -5.8,7 -8.7,10.4 -0.6,0.7 -1.6,1 -2.4,1.4 0.1,2 0,4 0,6 -0.4,0.2 -1,0.3 -1.4,-0.1 0,-2 0,-4 0,-6 -0.8,-0.3 -1.7,-0.6 -2.3,-1.3 -2.9,-3.3 -5.7,-6.8 -8.5,-10.1 -0.2,-0.3 -0.7,-0.6 -0.5,-1 z"
   id="path50" />

		<path
   class="st3"
   d="m 48.9,119.5 c 0.3,-0.2 0.6,-0.4 0.8,-0.6 1.2,0.7 2.3,1.4 3.5,2.1 -0.4,0.3 -0.8,0.5 -1.1,0.8 l 0.2,-0.2 c -1.2,-0.7 -2.4,-1.3 -3.4,-2.1 z"
   id="path51"
   style="fill:#333333" />

		<path
   class="st3"
   d="m 122.1,121.2 c 1.1,-0.7 2.3,-1.4 3.4,-2.1 0.3,0.2 0.6,0.5 0.9,0.7 -1.1,0.8 -2.3,1.4 -3.5,2.1 -0.2,-0.3 -0.5,-0.5 -0.8,-0.7 z"
   id="path52"
   style="fill:#333333" />

		<path
   class="st3"
   d="m 120,122.2 c 0.3,0.3 0.6,0.5 0.9,0.8 -17.9,9.5 -39.9,10.7 -58.8,3.4 -2.7,-1 -5.3,-2.3 -7.9,-3.5 0.3,-0.2 0.6,-0.5 0.8,-0.7 h 0.2 c 3,1.6 6.1,3 9.4,4 16.5,5.9 35.2,5.2 51.3,-1.9 1.4,-0.8 2.8,-1.3 4.1,-2.1 z"
   id="path53"
   style="fill:#333333" />

	</g>

	<g
   id="_x23_ffffffff_2_">
		<path
   class="st1"
   d="M 87.4,44.5 C 88.2,32.6 89.5,20.8 90.3,8.9 l 0.2,-0.1 c 7.5,0.6 14.6,3.6 20.7,7.7 6,4 11.3,9.1 16.1,14.5 10.5,12.2 18.6,26.3 24.7,41.2 1,2.9 2.3,5.7 3.1,8.7 -4.7,15 -14.7,28.1 -27.6,36.9 -5.4,-4.1 -10.8,-8.4 -16.2,-12.5 -1.1,-0.9 -2,1 -1.2,1.7 5.1,4 10.3,8 15.4,12 -1.1,0.8 -2.3,1.4 -3.4,2.1 -6.2,-4.7 -12.3,-9.5 -18.4,-14.3 -0.4,-0.3 -0.8,-0.9 -1.4,-0.7 -0.8,0.3 -1,1.6 -0.2,2 6,4.7 12,9.3 17.9,14 -1.3,0.9 -2.8,1.4 -4.1,2 -16,7 -34.7,7.7 -51.3,1.9 -3.2,-1.1 -6.3,-2.5 -9.4,-4 H 55 c 5.9,-4.6 11.8,-9.2 17.7,-13.8 0.8,-0.4 0.7,-1.6 0,-2 -0.6,-0.3 -1,0.3 -1.4,0.6 -6.1,4.7 -12.1,9.4 -18.2,14.1 -1.2,-0.7 -2.3,-1.5 -3.5,-2.1 4.6,-3.7 9.3,-7.3 14,-10.9 0.5,-0.4 1.2,-0.8 1.5,-1.5 0.2,-0.7 -0.6,-1.7 -1.4,-1.2 -5.4,4.1 -10.6,8.3 -16,12.4 -5.3,-3.8 -10.3,-8.3 -14.5,-13.4 -5.4,-6.5 -9.5,-14 -12.3,-21.9 -0.2,-0.7 -0.6,-1.4 -0.3,-2.1 1.5,-4.4 3.2,-8.7 5,-13 6.7,-14.9 15.4,-29 26.8,-40.8 3.1,-3 6.3,-6 9.9,-8.5 6.1,9.8 12.4,19.6 18.5,29.5 0.4,-0.2 0.8,-0.3 1.2,-0.5 -0.9,-4.5 -1.6,-9 -2.5,-13.4 C 78.7,29.8 78.2,26 77.4,22.3 76.6,18.5 76,14.6 75.3,10.8 c 0.5,-0.2 1,-0.4 1.4,-0.5 3.3,11.4 6.3,22.9 9.4,34.3 0.4,-0.1 0.9,-0.1 1.3,-0.1 M 48.8,69.1 c -0.8,4.7 -1.1,9.7 0.4,14.3 1.2,4.1 4.3,7.5 8.3,9.1 4.8,2 10.3,2.1 15.3,0.9 0.6,-3 1.2,-6 1.1,-9 C 74,80.7 73.2,76.8 71,73.8 68.4,70.2 64,68.4 59.7,68 56,67.7 52.3,68 48.8,69.1 m 59.1,1.3 c -2.5,1.6 -4.5,4.1 -5.4,6.9 -1.9,5.1 -1.1,10.8 0,16 0.9,0.3 1.9,0.4 2.9,0.6 4.2,0.5 8.6,0.2 12.5,-1.5 3.9,-1.6 6.9,-5 8.1,-9.1 1.6,-4.6 1.2,-9.5 0.4,-14.2 -3.1,-1.1 -6.4,-1.3 -9.7,-1.2 -3,0.1 -6.1,0.9 -8.8,2.5 m -31.7,32 c -0.2,0.4 0.3,0.7 0.5,1.1 2.8,3.4 5.6,6.8 8.5,10.1 0.6,0.7 1.5,1 2.3,1.3 0,2 0,4 0,6 0.3,0.4 0.9,0.3 1.4,0.1 0,-2 0,-4 0,-6 0.9,-0.3 1.8,-0.7 2.4,-1.4 2.9,-3.5 5.8,-6.9 8.7,-10.4 0.1,-0.2 0.5,-0.4 0.3,-0.7 -3.2,-1 -6.6,-1.4 -10,-1.6 -4.8,-0.3 -9.6,0.1 -14.1,1.5 z"
   id="path54"
   style="fill:#ffffff" />

		<path
   class="st1"
   d="m 111.9,72.6 c 2.1,-0.5 4.3,-0.9 6.5,-0.8 1.5,0 3,0.3 4.4,0.4 0.4,2.2 0.5,4.5 0.2,6.8 -0.3,3.2 -1.7,6.5 -4.4,8.6 -2.3,1.6 -5.1,2.6 -7.9,2.7 -1.7,0.3 -3.4,0 -5,-0.1 -0.3,-2 -0.6,-4 -0.5,-6 1.3,1.2 3,1.9 4.7,1.8 3,0.1 5.8,-2.3 6.4,-5.2 0.1,-1.4 0.2,-2.8 -0.4,-4.1 -0.7,-1.7 -2.3,-3.1 -4,-3.7 0.1,-0.3 0.1,-0.4 0,-0.4 z"
   id="path55"
   style="fill:#ffffff" />

		<path
   class="st1"
   d="m 54.2,72 c 2.3,-0.3 4.7,-0.3 7,0.2 0.6,0.3 1.6,0.1 2,0.7 -2,0.8 -3.7,2.5 -4.3,4.6 -0.7,2.2 0,4.8 1.6,6.4 2.3,2.7 7,2.8 9.4,0.2 -0.1,2 -0.1,4.1 -0.6,6.1 -2,0.2 -4.1,0.3 -6.1,0 C 59.5,89.8 55.7,88 53.8,84.6 51.7,80.9 51.7,76.5 52.2,72.4 52.8,72 53.5,72 54.2,72 Z"
   id="path56"
   style="fill:#ffffff" />

	</g>

	
	
	
	
	
	
	
	
	
</g>
  </g>
</svg>
