<svg class="svg-icon" style="width: 1em;height: 1em;vertical-align: middle;fill: currentColor;overflow: hidden;" viewBox="0 0 1024 1024" version="1.1" xmlns="http://www.w3.org/2000/svg"><path d="M102.41 125.44c21.03-21.29 50.64-33.64 80.54-33.94h637.03c11.38 0.09 22.84-0.52 34.13 1.38 32.98 4.9 63.23 24.96 80.76 53.3 11.23 17.82 17.34 38.78 17.63 59.84-0.01 150.01 0 300.03 0 450.05-0.11 12.35 0.62 24.8-1.65 37.02-5.79 35.15-28.89 66.88-60.53 83.25a115.05 115.05 0 0 1-38.14 12.23c-10.66 1.52-21.46 1.13-32.19 1.18H533.51c-0.02 32.5-0.01 65 0 97.5 90.19 0 180.38 0.01 270.57-0.01 7.67-0.15 15.24 3.9 19.41 10.33 4.03 5.95 4.86 13.82 2.59 20.59-2.44 7.24-8.72 12.98-16.12 14.85-3.88 1.02-7.93 0.7-11.89 0.74-193.71 0-387.43-0.01-581.14 0-6.47 0.14-13-2.49-17.39-7.3-5.48-5.56-7.52-14-5.71-21.53 1.86-7.97 8.27-14.67 16.17-16.81 3.89-1.23 8.01-0.81 12.02-0.86 88.33 0 176.65 0.01 264.98 0v-97.5c-100.69-0.01-201.37 0.01-302.06-0.01-22-0.06-44.02-6.14-62.58-18.03-27.55-17.22-47.18-46.5-52.51-78.56-2.2-11.59-1.49-23.4-1.6-35.12V204.04c0.78-29.29 13.26-58.08 34.16-78.6m72.13 13.31c-27.11 3.66-50.73 24.75-57.48 51.25-3.17 10.72-2.16 21.96-2.31 32.98v443.03c0.05 5.72-0.29 11.48 0.66 17.16 2.48 17.67 12.1 34.19 26.2 45.12 12.5 9.92 28.47 15.07 44.38 14.96H829c6.39 0.07 12.83-0.05 19.15-1.15 17.13-2.97 33.01-12.64 43.49-26.52 9.12-11.82 14.22-26.65 14.36-41.58V219.06c-0.08-7.71 0.42-15.48-1.05-23.1-3-17.84-13.37-34.19-28.04-44.72-11.53-8.38-25.67-13.03-39.91-13.24-216-0.01-432.01 0.01-648.01 0-4.83-0.09-9.67 0.06-14.45 0.75z" fill="#0C00BF" /><path d="M484.52 216.81c41.55-4.6 84.3 2.1 122.35 19.44 23.25 10.59 44.84 24.94 63.35 42.56 10.19 9.45 8.68 27.89-2.95 35.52-8.08 5.85-20.03 5.62-27.79-0.68-2.74-2.29-5.29-4.82-8.04-7.1-29.86-25.65-68.1-41.26-107.34-44.13-38.99-3-78.79 6.86-111.91 27.64-5.83 3.91-13.42 4.74-20.07 2.69-8.22-2.54-14.61-10.07-15.79-18.59-1.51-8.92 2.83-18.51 10.55-23.24 29.44-18.49 63.08-30.28 97.64-34.11zM300.42 379.66c8.2-2.3 17.65 0.27 23.32 6.69 5.5 5.65 7.22 14.18 5.4 21.73-9.4 40.24-4.64 83.52 12.96 120.88 15.88 34.12 42.49 63.11 75.11 81.88 4.49 2.71 9.66 4.66 13.01 8.89 6.15 7.09 7.32 18.02 2.7 26.21-3.9 7.59-12.39 12.47-20.92 12.1-6.78 0.23-12.54-3.76-18.21-6.91-30.86-17.87-57.57-42.9-77.19-72.7-22.49-33.87-35.81-73.74-38.28-114.32-1.07-20.01 0.02-40.17 4.01-59.82 1.04-4.71 1.65-9.66 4.14-13.89 3.02-5.2 8.12-9.17 13.95-10.74zM715.47 417.75c9.23-1.97 19.39 2.47 24.23 10.56 3.46 5.21 3.73 11.64 3.55 17.68 0.58 43.49-11.5 87.03-34.37 124.02-29.39 48.1-76.88 84.77-130.9 100.91-6.18 1.83-13.1 1.04-18.63-2.29-8.16-4.63-12.68-14.61-11.04-23.8 1.29-8.62 7.85-16.1 16.23-18.48 35.91-10.82 68.29-32.88 91.62-62.24 26.22-32.57 40.85-74.28 40.6-116.1 0.02-3.34-0.13-6.69 0.06-10.02 0.83-9.87 8.91-18.55 18.65-20.24z" fill="#0C00BF" /><path d="M500.59 358.87c19.09-2.28 38.95 2.08 55.22 12.35 13.81 8.58 25.01 21.24 31.99 35.91 7.43 15.73 9.88 33.76 6.92 50.9-2.94 17.74-11.76 34.45-24.75 46.89-12.39 12.24-28.75 20.29-45.93 23-17.1 2.72-35.06 0.2-50.62-7.45-15.57-7.42-28.68-19.8-37.16-34.81-9.05-15.86-12.65-34.71-10.34-52.81 2.14-17.47 9.95-34.17 21.89-47.08 13.64-14.88 32.71-24.64 52.78-26.9m1.9 46.82c-11.05 2.36-20.9 9.74-26.14 19.76-6.23 11.3-6.07 25.71 0.29 36.92 7.27 13.45 23.06 21.78 38.27 19.83 10.32-1.14 20.08-6.65 26.36-14.92 6.85-8.71 9.69-20.5 7.35-31.35-2.26-11.53-10.17-21.69-20.63-26.95-7.8-3.95-16.96-5.25-25.5-3.29z" fill="#FC4E7F" /></svg>